name C:\Users\u0101727\Documents\MyRepositories\upper-imu-dc\Results\main_tracking\Case_46\kinematics.mot
datacolumns 10
datarows 28
range 2.12000000 2.39000000
endheader 
time	clav_prot	clav_elev	scapula_abduction	scapula_elevation	scapula_upward_rot	scapula_winging	plane_elv	shoulder_elv	axial_rot	
          2.12000000	        -23.25972242	          0.75373752	          7.17052887	         -6.25095422	         44.29048980	         -2.99557318	         59.27988972	         58.86269482	        -19.04891759	
          2.13000000	        -23.25848819	          0.84155317	          7.32053310	         -6.21037823	         44.50100216	         -3.05517225	         59.26276943	         59.25159095	        -18.81318246	
          2.14000000	        -23.25899509	          0.93105280	          7.46757209	         -6.16852605	         44.71186906	         -3.11496241	         59.24327309	         59.64229300	        -18.57782197	
          2.15000000	        -23.26077533	          1.02258631	          7.61272174	         -6.12516431	         44.92351157	         -3.17511312	         59.22132132	         60.03417995	        -18.34313365	
          2.16000000	        -23.26334406	          1.11653583	          7.75695444	         -6.08001810	         45.13619072	         -3.23577772	         59.19691329	         60.42670298	        -18.10976277	
          2.17000000	        -23.26622341	          1.21328884	          7.90110601	         -6.03279289	         45.35001217	         -3.29708490	         59.17011734	         60.81938662	        -17.87862470	
          2.18000000	        -23.26898708	          1.31320657	          8.04581866	         -5.98320232	         45.56494460	         -3.35913068	         59.14105989	         61.21182227	        -17.65077937	
          2.19000000	        -23.27133297	          1.41659089	          8.19145335	         -5.93100072	         45.78086106	         -3.42197302	         59.10991312	         61.60365211	        -17.42728098	
          2.20000000	        -23.27317517	          1.52365216	          8.33798912	         -5.87601827	         45.99760685	         -3.48563058	         59.07688019	         61.99454391	        -17.20903001	
          2.21000000	        -23.27472972	          1.63448144	          8.48494878	         -5.81819405	         46.21508763	         -3.55008590	         59.04217664	         62.38415982	        -16.99665307	
          2.22000000	        -23.27655629	          1.74903071	          8.63140248	         -5.75760039	         46.43335978	         -3.61529191	         59.00600684	         62.77212605	        -16.79043060	
          2.23000000	        -23.27952157	          1.86710471	          8.77608772	         -5.69445161	         46.65269695	         -3.68117974	         58.96853658	         63.15801299	        -16.59028231	
          2.24000000	        -23.28467835	          1.98836550	          8.91763877	         -5.62909405	         46.87361081	         -3.74766532	         58.92986481	         63.54133398	        -16.39580794	
          2.25000000	        -23.29309183	          2.11234831	          9.05486307	         -5.56198011	         47.09681739	         -3.81465285	         58.88999902	         63.92156468	        -16.20636830	
          2.26000000	        -23.30567048	          2.23848520	          9.18697269	         -5.49363324	         47.32315916	         -3.88203507	         58.84883912	         64.29817776	        -16.02118421	
          2.27000000	        -23.32305502	          2.36613311	          9.31369463	         -5.42461192	         47.55350564	         -3.94969137	         58.80617250	         64.67068269	        -15.83943152	
          2.28000000	        -23.34559262	          2.49460276	          9.43523450	         -5.35547911	         47.78865955	         -4.01748606	         58.76168073	         65.03866035	        -15.66031862	
          2.29000000	        -23.37338890	          2.62318465	          9.55212467	         -5.28678120	         48.02928977	         -4.08526821	         58.71495671	         65.40178528	        -15.48314251	
          2.30000000	        -23.40641133	          2.75116879	          9.66501316	         -5.21903834	         48.27590273	         -4.15287399	         58.66552980	         65.75983509	        -15.30732492	
          2.31000000	        -23.44460822	          2.87785640	          9.77445815	         -5.15274470	         48.52885292	         -4.22013149	         58.61289300	         66.11269241	        -15.13243356	
          2.32000000	        -23.48798820	          3.00256456	          9.88080947	         -5.08837317	         48.78837274	         -4.28686600	         58.55653404	         66.46033147	        -14.95819641	
          2.33000000	        -23.53666160	          3.12462909	          9.98416207	         -5.02637932	         49.05460741	         -4.35290571	         58.49596228	         66.80279252	        -14.78451757	
          2.34000000	        -23.59087207	          3.24340983	         10.08433546	         -4.96720381	         49.32766116	         -4.41808932	         58.43072918	         67.14017691	        -14.61149901	
          2.35000000	        -23.65097089	          3.35829999	         10.18093871	         -4.91126676	         49.60762462	         -4.48227231	         58.36044314	         67.47262822	        -14.43946709	
          2.36000000	        -23.71738489	          3.46874116	         10.27343754	         -4.85895686	         49.89459227	         -4.54533310	         58.28477624	         67.80031898	        -14.26899401	
          2.37000000	        -23.79058093	          3.57424189	         10.36121850	         -4.81061686	         50.18866969	         -4.60717846	         58.20346474	         68.12343864	        -14.10090490	
          2.38000000	        -23.87102876	          3.67439793	         10.44364770	         -4.76652708	         50.48997084	         -4.66774789	         58.11630568	         68.44218524	        -13.93626487	
          2.39000000	        -23.95916327	          3.76891215	         10.52012318	         -4.72688840	         50.79860616	         -4.72701620	         58.02315151	         68.75676179	        -13.77634504	
